<svg id="Layer_1" data-name="Layer 1" xmlns="http://www.w3.org/2000/svg" xmlns:xlink="http://www.w3.org/1999/xlink" viewBox="0 0 401.62 129.72"><defs><linearGradient id="linear-gradient" x1="70.29" y1="202.19" x2="62.84" y2="172.15" gradientUnits="userSpaceOnUse"><stop offset="0" stop-opacity="0"/><stop offset="0.99"/></linearGradient><linearGradient id="linear-gradient-2" x1="-1313.15" y1="201.98" x2="-1320.6" y2="171.94" gradientTransform="matrix(-1, 0, 0, 1, -1098.03, 0)" xlink:href="#linear-gradient"/><linearGradient id="linear-gradient-3" x1="347.49" y1="212.73" x2="351.81" y2="147.61" xlink:href="#linear-gradient"/><linearGradient id="linear-gradient-4" x1="325.03" y1="167.21" x2="335.03" y2="165.76" xlink:href="#linear-gradient"/><linearGradient id="linear-gradient-5" x1="-1266.52" y1="167.21" x2="-1256.52" y2="165.76" gradientTransform="matrix(-1, 0, 0, 1, -890.25, 0)" xlink:href="#linear-gradient"/><linearGradient id="linear-gradient-6" x1="332.31" y1="242.5" x2="297.53" y2="122.53" xlink:href="#linear-gradient"/></defs><title>User Profile 1</title><path d="M136.87,178.32a62.71,62.71,0,0,1-94.32,54.16l2.56,2.32L14.34,245.36l10.39-28.48a62.7,62.7,0,1,1,112.14-38.56Z" transform="translate(-11.48 -115.63)" fill="#68e1fd" opacity="0.18" style="isolation:isolate"/><path d="M63.51,199.44s-17.24.35-26,14.74c0,0-4.57,20.45-4,24.81l11.3-5.12c.34.93,16.94,7.49,31.41,6.84C102.91,239.52,115,226,115,226s-2.83-19.19-18.65-23.55S63.51,199.44,63.51,199.44Z" transform="translate(-11.48 -115.63)" fill="#68e1fd"/><path d="M63.39,198.58s-3.73.57-3.61,3.27.57,10.83,4.76,8.88,7.74-7.85,7.74-7.85Z" transform="translate(-11.48 -115.63)" fill="#fff"/><path d="M82.76,198.58s3.73.57,3.62,3.27-.58,10.83-4.76,8.88-7.74-7.85-7.74-7.85Z" transform="translate(-11.48 -115.63)" fill="#fff"/><path d="M49.29,159.66s-4.24,26.83,6.42,30.26a9.89,9.89,0,0,0,7.8,1v8.48s10.77,8.14,19.6-.57V177s-1-13.35-3.67-11.93c-.61.34-6-.22-6.88-10,0,0-12.38-5.5-18.11-1.72S49.29,159.66,49.29,159.66Z" transform="translate(-11.48 -115.63)" fill="#f7af87"/><path d="M46.68,158.76a10,10,0,0,0,6.15,4.83,6.37,6.37,0,0,0,6.91-2.87,7.52,7.52,0,0,0,9.76,2.22c1.42,2,4.13,2.55,6.56,2.4a13.28,13.28,0,0,0,8.38-3.48,9.94,9.94,0,0,0,3-8.38c-.53-3.59-3.24-6.48-6.14-8.65a32.37,32.37,0,0,0-15.74-6.39c-5.17-.58-13.43,0-17.39,3.9S43.85,154,46.68,158.76Z" transform="translate(-11.48 -115.63)" fill="#dd6034"/><path d="M63.51,191s6.53-1.72,8.94-4.7c0,0-3.33,13.07-8.94,13.18Z" transform="translate(-11.48 -115.63)" fill="url(#linear-gradient)"/><path d="M76.76,161.58l.47,9.25,1.86-2.54c.28-.39.66-.81,1.13-.73s.58.41.74.73a8.23,8.23,0,0,1-1.36,9.19,3.88,3.88,0,0,0-.95,1.23,3.09,3.09,0,0,0-.08,1.25c.19,2.7,4.17,5.87,4.85,3.91s.81-4.09,1.45-6.07a25.16,25.16,0,0,1,4.21-7,20.87,20.87,0,0,0,4-7.15c.66-2.66.14-5.79-2-7.54a3.29,3.29,0,0,1-1-1,2.89,2.89,0,0,1-.19-1A14.5,14.5,0,0,0,86,145.22a11.74,11.74,0,0,0-8.92-3.62,3.74,3.74,0,0,0-1.62.38,4,4,0,0,0-1.69,2.77c-1.07,5,1.25,10,2.12,15.08" transform="translate(-11.48 -115.63)" fill="#dd6034"/><path d="M275.57,178.32a62.72,62.72,0,0,1-94.33,54.16l2.56,2.32L153,245.36l10.38-28.48a62.7,62.7,0,1,1,112.15-38.56Z" transform="translate(-11.48 -115.63)" fill="#68e1fd" opacity="0.18" style="isolation:isolate"/><path d="M201.92,199.44s-17.24.35-26,14.74c0,0-6,20.62-5.4,25l13.32-4.36c6.64,3.71,16.61,6.55,30.79,5.91,26.74-1.19,38.78-14.74,38.78-14.74s-2.83-19.19-18.65-23.55S201.92,199.44,201.92,199.44Z" transform="translate(-11.48 -115.63)" fill="#68e1fd"/><path d="M239.4,176.5c2.17-11.08,4.12-28.18-3.51-31.68l-5-.23s-3.67-8.5-18.37-7.12S183,151.24,189.7,171.37C193.18,181.81,187,197,187,197l21.62-.08L242,195.86h0A30.2,30.2,0,0,1,239.4,176.5Z" transform="translate(-11.48 -115.63)" fill="#404040"/><path d="M236.12,159.45s4.24,26.83-6.42,30.27a9.87,9.87,0,0,1-7.8,1v8.49s-10.77,8.14-19.6-.58v-21.9s1-13.34,3.67-11.92c.61.33,6-.23,6.88-10,0,0,12.38-5.51,18.11-1.72S236.12,159.45,236.12,159.45Z" transform="translate(-11.48 -115.63)" fill="#f7af87"/><path d="M221.9,190.75s-6.53-1.72-8.94-4.7c0,0,3.32,13.07,8.94,13.19Z" transform="translate(-11.48 -115.63)" fill="url(#linear-gradient-2)"/><path d="M227.25,151.67c-3.31,0-6.91.47-9.24,2.81-2.88,2.89-2.81,7.49-4.07,11.37a14.34,14.34,0,0,1-5.31,7.34,11.6,11.6,0,0,1-8.77,1.93,2.31,2.31,0,0,1-1.59-.89,2.51,2.51,0,0,1-.21-1.44c.29-5.5.94-11.19,3.78-15.9a19,19,0,0,1,6.38-6.37,12.45,12.45,0,0,1,5-1.84c3.5-.4,6.9,1.16,10.07,2.69" transform="translate(-11.48 -115.63)" fill="#404040"/><path d="M201.81,198.58s-3.73.57-3.61,3.27.57,10.83,4.76,8.88,7.74-7.85,7.74-7.85Z" transform="translate(-11.48 -115.63)" fill="#fff"/><path d="M221.18,198.58s3.73.57,3.62,3.27-.58,10.83-4.76,8.88-7.74-7.85-7.74-7.85Z" transform="translate(-11.48 -115.63)" fill="#fff"/><circle cx="199.81" cy="97.98" r="2.07" fill="#fff"/><circle cx="199.81" cy="105.3" r="2.07" fill="#fff"/><circle cx="199.81" cy="112.62" r="2.07" fill="#fff"/><path d="M413.11,178.32a62.71,62.71,0,0,1-94.32,54.16l2.55,2.32-30.76,10.56L301,216.88a62.7,62.7,0,1,1,112.15-38.56Z" transform="translate(-11.48 -115.63)" fill="#68e1fd" opacity="0.18" style="isolation:isolate"/><path d="M339.47,199.44s-17.24.35-26.05,14.74c0,0-6,20.62-5.4,25l13.32-4.36c6.64,3.71,16.61,6.55,30.8,5.91,26.73-1.19,38.77-14.74,38.77-14.74s-2.83-19.19-18.65-23.55S339.47,199.44,339.47,199.44Z" transform="translate(-11.48 -115.63)" fill="#68e1fd"/><path d="M340.77,184.76s-.22,12.19-1.3,14.68,8.47,10.1,18.25,3.15l.65-3.05s-1.73-8.47-.65-15.86S340.77,184.76,340.77,184.76Z" transform="translate(-11.48 -115.63)" fill="#f7af87"/><path d="M340.62,186.36s1.71,8.19,8.95,8.76,7.83-1.88,7.83-1.88l.18-10.5Z" transform="translate(-11.48 -115.63)" fill="url(#linear-gradient-3)"/><path d="M329.76,160a3.51,3.51,0,0,0-2.92-.56,2.66,2.66,0,0,0-1,.73c-1.52,1.61-1.44,4.15-1,6.32a23.38,23.38,0,0,0,1.1,3.57,5.13,5.13,0,0,0,.81,1.49c1.07,1.29,3,1.46,4.65,1.27a3.13,3.13,0,0,0,2.54-1.3,3.16,3.16,0,0,0,.26-1.09C334.62,166.06,333.59,162.32,329.76,160Z" transform="translate(-11.48 -115.63)" fill="#f7af87"/><path d="M371.09,161.78c1.23-.86,2.83-1.52,4.21-.93a3.47,3.47,0,0,1,1.9,2.88,7.88,7.88,0,0,1-.62,3.54,11.74,11.74,0,0,1-2.19,3.92,5.91,5.91,0,0,1-3.9,2,4,4,0,0,1-3.77-2,6.54,6.54,0,0,1-.5-2.78,5.32,5.32,0,0,1,.25-2.18C367.06,164.78,369.83,162.65,371.09,161.78Z" transform="translate(-11.48 -115.63)" fill="#f7af87"/><path d="M369.82,165.89c-1.56,13.07-8.83,23.83-19.71,23.83s-19.7-10.67-19.7-23.83,7-28,17.88-28S373,139.16,369.82,165.89Z" transform="translate(-11.48 -115.63)" fill="#f7af87"/><path d="M330.42,159.88l.18,2.92c0,.46.15,1,.6,1.13s.89-.68.9-1.28c0-2.4-.75-5.11.74-7a7.85,7.85,0,0,0,1-1.21c.62-1.25-.32-2.84.24-4.12.33-.73,1.06-1.18,1.59-1.79a11,11,0,0,0,1.47-3.11,1.87,1.87,0,0,1,.67-.93,3.62,3.62,0,0,1,.94-.25c1.22-.31,1.94-1.56,3-2.21a5.77,5.77,0,0,1,3.1-.58c4.17.13,8.51,1.61,12.37,0a10.47,10.47,0,0,0,6.71,4.28,1.22,1.22,0,0,1,.63.22,1.56,1.56,0,0,1,.34.75,7.53,7.53,0,0,0,1.66,2.34c2.41,3,2.36,7.15,2.18,11l-.28,6.11,2.13-3.58a4.25,4.25,0,0,1,.85-1.12c.39-.33.91-.53,1.15-1a2.1,2.1,0,0,0,.17-.74l.52-5.24a7.32,7.32,0,0,0-.1-2.84c-.18-.58-.5-1.11-.68-1.69a10.26,10.26,0,0,1-.09-3.23,3.76,3.76,0,0,0-.94-3c.7-2.34,1.36-4.82.81-7.2s-2.76-4.55-5.17-4.19a3,3,0,0,1-1.12.08,2.38,2.38,0,0,1-.85-.51,10.32,10.32,0,0,0-5.87-2.2,59.59,59.59,0,0,0-7.56,0c-5.66.47-11.6-.7-16.89,1.34a10.8,10.8,0,0,0-3.46,2.08,16.8,16.8,0,0,0-2.67,3.57,6.05,6.05,0,0,0-.89,1.91,10,10,0,0,0,0,2.26c0,2.51-1.28,5-.86,7.45.15.91.52,1.76.65,2.67a14.79,14.79,0,0,1,0,2.49,15.12,15.12,0,0,0,1.08,6.13c.13.33.34.71.7.74S330.1,159.49,330.42,159.88Z" transform="translate(-11.48 -115.63)" fill="#404040"/><path d="M333.29,181.84a15.26,15.26,0,0,0,1.24,3.49,11.68,11.68,0,0,0,6.31,5.13,25.64,25.64,0,0,0,8.17,1.31,64.86,64.86,0,0,0,11.14-.66c1.32-.19,1.22-.48,2.28-1.27,1.71-1.28,3.67-3.56,4-5.67,1.06-6.27,2.83-15,2.57-21.36-1.7,3.14-1.68,9.86-4.15,12.44-1.34,1.39-3.34,1.87-5.24,2.18a52.17,52.17,0,0,1-18.44-.25,9.46,9.46,0,0,1-5-2.14c-2.16-2.13-2-5.56-2.47-8.56-.19-1.32-.7-3.29-2.15-3.73-.44,2.63.16,5.51.22,8.16A48.51,48.51,0,0,0,333.29,181.84Z" transform="translate(-11.48 -115.63)" fill="#404040"/><path d="M328.41,164.19a3.29,3.29,0,0,0-.11-.89.73.73,0,0,0-.65-.53c-.32,0-.55.3-.7.58a5,5,0,0,0-.15,3.76,5.32,5.32,0,0,0,2.17,3.06,1.74,1.74,0,0,0,1.84.15c1-.69.61-2.71-.29-3.27-.55-.34-1-.3-1.43-.9A3.65,3.65,0,0,1,328.41,164.19Z" transform="translate(-11.48 -115.63)" fill="url(#linear-gradient-4)"/><path d="M372.89,164.19a3.29,3.29,0,0,1,.11-.89.73.73,0,0,1,.65-.53c.32,0,.55.3.7.58a5,5,0,0,1,.15,3.76,5.32,5.32,0,0,1-2.17,3.06,1.74,1.74,0,0,1-1.84.15c-1-.69-.6-2.71.29-3.27.55-.34,1-.3,1.43-.9A3.65,3.65,0,0,0,372.89,164.19Z" transform="translate(-11.48 -115.63)" fill="url(#linear-gradient-5)"/><path d="M361.73,194.45a6.21,6.21,0,0,0-3.2-.52c-6.75.18-13.73,1.58-20.08-.71a8.86,8.86,0,0,0-2.32,3.83c-.65,3.07,1.94,5.92,4.74,7.32,4.73,2.38,10.27,2.33,15.55,2,2.07-.12,4.31-.33,5.85-1.73C364.72,202.46,364.85,196.2,361.73,194.45Z" transform="translate(-11.48 -115.63)" fill="#68e1fd"/><path d="M336,199.33s-2.18,5.21,8.69,5.43c0,0-10.87.22-13.91,2.61s-10.65,6.08-11.08,10.87-3.05,17.6-3.05,17.6L308,239.16l5.4-25A34.15,34.15,0,0,1,336,199.33Z" transform="translate(-11.48 -115.63)" fill="url(#linear-gradient-6)"/></svg>